<svg xmlns="http://www.w3.org/2000/svg" xmlns:xlink="http://www.w3.org/1999/xlink" width="1920" zoomAndPan="magnify" viewBox="0 0 1440 299.999988" height="400" preserveAspectRatio="xMidYMid meet" version="1.0"><defs><g/></defs><path fill="#ffffff" d="M 379.261719 90.605469 L 333.550781 204.050781 L 360.769531 204.050781 L 372.195312 174.960938 L 438.144531 174.960938 L 449.570312 204.050781 L 476.789062 204.050781 L 431.078125 90.605469 Z M 382.460938 151.984375 L 395.796875 116.164062 C 396.164062 115.1875 396.664062 114.285156 397.304688 113.464844 C 397.941406 112.640625 398.691406 111.929688 399.546875 111.335938 C 400.402344 110.742188 401.328125 110.289062 402.324219 109.976562 C 403.316406 109.667969 404.335938 109.511719 405.378906 109.511719 C 406.417969 109.511719 407.4375 109.667969 408.433594 109.976562 C 409.425781 110.289062 410.351562 110.742188 411.207031 111.335938 C 412.0625 111.929688 412.8125 112.640625 413.449219 113.464844 C 414.089844 114.285156 414.589844 115.1875 414.957031 116.164062 L 428.292969 151.898438 Z M 382.460938 151.984375 " fill-opacity="1" fill-rule="nonzero"/><path fill="#ffffff" d="M 544.980469 205.628906 L 608.933594 205.628906 L 608.933594 182.648438 L 544.605469 182.648438 C 528.316406 182.648438 505.335938 171.679688 505.335938 147.285156 C 505.335938 122.894531 528.359375 112.007812 544.605469 112.007812 L 608.726562 112.007812 L 608.726562 89.027344 L 544.980469 89.027344 C 505.792969 89.027344 479.488281 112.464844 479.488281 147.203125 C 479.488281 181.945312 505.585938 205.628906 544.980469 205.628906 Z M 544.980469 205.628906 " fill-opacity="1" fill-rule="nonzero"/><path fill="#ffffff" d="M 694.828125 182.648438 C 676.707031 182.648438 655.558594 173.382812 655.558594 147.285156 L 655.558594 90.605469 L 629.503906 90.605469 L 629.503906 147.328125 C 629.503906 182.191406 655.804688 205.503906 694.992188 205.503906 L 707.042969 205.503906 C 746.105469 205.503906 773.53125 181.527344 773.53125 147.328125 L 773.53125 90.605469 L 747.433594 90.605469 L 747.433594 147.328125 C 747.433594 173.425781 726.367188 182.691406 708.332031 182.691406 Z M 694.828125 182.648438 " fill-opacity="1" fill-rule="nonzero"/><path fill="#ffffff" d="M 893.457031 171.511719 C 895.09375 170.625 896.660156 169.632812 898.15625 168.527344 C 899.652344 167.421875 901.066406 166.222656 902.398438 164.921875 C 903.726562 163.621094 904.960938 162.234375 906.101562 160.765625 C 907.238281 159.292969 908.269531 157.75 909.191406 156.136719 C 910.117188 154.519531 910.925781 152.851562 911.617188 151.125 C 912.308594 149.398438 912.878906 147.632812 913.328125 145.824219 C 913.773438 144.019531 914.09375 142.191406 914.289062 140.34375 C 914.484375 138.492188 914.546875 136.636719 914.484375 134.777344 C 914.484375 107.101562 893.707031 90.605469 859.175781 90.605469 L 794.308594 90.605469 L 794.308594 204.050781 L 820.363281 204.050781 L 820.363281 179.117188 L 822.980469 179.117188 C 861.625 179.117188 863.953125 179.117188 866.199219 178.828125 L 867.695312 178.828125 L 885.4375 204.300781 L 911.035156 204.300781 L 891.007812 173.132812 Z M 860.214844 156.054688 L 820.320312 156.054688 L 820.320312 113.503906 L 860.214844 113.503906 C 872.304688 113.503906 888.386719 115.707031 888.386719 134.777344 C 888.386719 153.851562 872.347656 156.054688 860.253906 156.054688 Z M 860.214844 156.054688 " fill-opacity="1" fill-rule="nonzero"/><path fill="#ffffff" d="M 970.914062 90.605469 L 925.414062 204.050781 L 952.589844 204.050781 L 964.058594 174.960938 L 1029.964844 174.960938 L 1041.433594 204.050781 L 1068.570312 204.050781 L 1023.066406 90.605469 Z M 974.117188 151.984375 L 987.453125 116.246094 C 987.8125 115.265625 988.3125 114.363281 988.949219 113.539062 C 989.582031 112.714844 990.328125 112.003906 991.183594 111.40625 C 992.039062 110.808594 992.960938 110.355469 993.957031 110.042969 C 994.953125 109.730469 995.96875 109.570312 997.011719 109.570312 C 998.054688 109.570312 999.074219 109.730469 1000.066406 110.042969 C 1001.0625 110.355469 1001.984375 110.808594 1002.839844 111.40625 C 1003.695312 112.003906 1004.441406 112.714844 1005.078125 113.539062 C 1005.714844 114.363281 1006.210938 115.265625 1006.570312 116.246094 L 1019.910156 151.984375 Z M 974.117188 151.984375 " fill-opacity="1" fill-rule="nonzero"/><path fill="#ffffff" d="M 1157.082031 133.824219 L 1127.492188 133.824219 C 1115.402344 133.824219 1104.015625 133.824219 1104.015625 123.683594 C 1104.015625 113.542969 1115.402344 113.503906 1127.492188 113.503906 L 1199.882812 113.503906 L 1199.882812 90.605469 L 1127.492188 90.605469 C 1083.070312 90.605469 1077.960938 109.929688 1077.960938 124.472656 C 1077.960938 153.0625 1104.429688 156.761719 1127.492188 156.761719 L 1160.738281 156.761719 C 1166.304688 156.761719 1183.261719 156.761719 1183.261719 170.058594 C 1183.261719 180.324219 1173.078125 181.152344 1160.738281 181.152344 L 1082.824219 181.152344 L 1082.824219 204.050781 L 1157.082031 204.050781 C 1202.5 204.050781 1209.273438 182.066406 1209.273438 168.9375 C 1209.273438 138.394531 1176.609375 133.824219 1157.082031 133.824219 Z M 1157.082031 133.824219 " fill-opacity="1" fill-rule="nonzero"/><path fill="#ffffff" d="M 1276.136719 204.050781 L 1302.191406 204.050781 L 1302.355469 113.503906 L 1359.367188 113.503906 L 1359.367188 90.605469 L 1220.660156 90.605469 L 1220.660156 113.503906 L 1276.136719 113.503906 Z M 1276.136719 204.050781 " fill-opacity="1" fill-rule="nonzero"/><path fill="#b4e600" d="M 191.808594 62.140625 L 92.449219 62.140625 L 21.472656 204.09375 L 120.832031 204.09375 Z M 191.808594 62.140625 " fill-opacity="1" fill-rule="nonzero"/><path fill="#b4e600" d="M 163.425781 147.328125 L 248.570312 147.328125 L 291.164062 232.472656 L 206.019531 232.472656 Z M 163.425781 147.328125 " fill-opacity="1" fill-rule="nonzero"/><g fill="#ffffff" fill-opacity="1"><g transform="translate(1374.202525, 112.338913)"><g><path d="M 7.515625 0 L 7.515625 -17.953125 L 0.484375 -17.953125 L 0.484375 -20.5 L 17.4375 -20.5 L 17.4375 -17.953125 L 10.40625 -17.953125 L 10.40625 0 Z M 7.515625 0 "/></g></g></g><g fill="#ffffff" fill-opacity="1"><g transform="translate(1392.091879, 112.338913)"><g><path d="M 2.953125 -20.5 L 7.515625 -20.5 L 13.890625 -5.828125 L 20.921875 -20.5 L 24.75 -20.5 L 24.75 0 L 21.953125 0 L 21.953125 -15.125 L 22.21875 -17.953125 L 15.546875 -3.640625 L 12.234375 -3.640625 L 5.4375 -19 L 5.765625 -15.125 L 5.765625 0 L 2.953125 0 Z M 2.953125 -20.5 "/></g></g></g></svg>